<svg xmlns="http://www.w3.org/2000/svg" xmlns:xlink="http://www.w3.org/1999/xlink" width="48" zoomAndPan="magnify" viewBox="0 0 36 36.000001" height="48" preserveAspectRatio="xMidYMid meet" version="1.0"><defs><clipPath id="d357550a24"><path d="M 7.375 22 L 20 22 L 20 31.234375 L 7.375 31.234375 Z M 7.375 22 " clip-rule="nonzero"/></clipPath><clipPath id="0bc05098aa"><path d="M 12.457031 22.613281 C 11.5 23.042969 10.394531 23.53125 9.777344 23.8125 C 7.496094 24.863281 6.675781 27.609375 8.03125 29.707031 C 9.117188 31.382812 11.375 32.019531 13.257812 31.082031 C 14.132812 30.644531 16.203125 29.761719 17.089844 29.347656 C 17.65625 29.082031 18.230469 28.820312 18.800781 28.558594 C 20.097656 25.8125 12.457031 22.613281 12.457031 22.613281 Z M 19.210938 28.375 L 19.265625 28.351562 L 19.265625 28.347656 Z M 19.210938 28.375 " clip-rule="nonzero"/></clipPath><clipPath id="2a587f2a66"><path d="M 12 21 L 21 21 L 21 29 L 12 29 Z M 12 21 " clip-rule="nonzero"/></clipPath><clipPath id="8f81fe1833"><path d="M 20.585938 25.117188 C 20.261719 23.777344 18.714844 22.960938 16.804688 21.777344 C 16.507812 21.59375 16.097656 21.378906 15.625 21.136719 L 12.457031 22.613281 C 12.457031 22.613281 20.101562 25.8125 18.800781 28.5625 C 20.105469 27.683594 20.964844 26.683594 20.585938 25.117188 Z M 20.585938 25.117188 " clip-rule="nonzero"/></clipPath><clipPath id="7569f820e5"><path d="M 14 7 L 23 7 L 23 15 L 14 15 Z M 14 7 " clip-rule="nonzero"/></clipPath><clipPath id="854c7faf46"><path d="M 16.128906 7.332031 L 16.160156 7.320312 C 12.5 10.242188 15.90625 12.597656 15.90625 12.597656 C 15.90625 12.597656 17.484375 13.566406 19.398438 14.691406 C 19.632812 14.585938 20.609375 14.15625 22.535156 13.238281 C 14.78125 9.988281 16.171875 7.316406 16.171875 7.316406 Z M 16.128906 7.332031 " clip-rule="nonzero"/></clipPath><clipPath id="be8538bf13"><path d="M 9 7 L 26 7 L 26 29 L 9 29 Z M 9 7 " clip-rule="nonzero"/></clipPath><clipPath id="dc2605f01d"><path d="M 16.160156 7.320312 L 13.210938 8.585938 C 13.210938 8.585938 11.203125 9.457031 10.1875 12.105469 C 9.75 13.246094 9.640625 15.863281 10.753906 17.46875 C 12.335938 19.753906 15.546875 20.996094 16.804688 21.777344 C 18.714844 22.960938 20.261719 23.777344 20.585938 25.117188 C 20.964844 26.683594 20.105469 27.683594 18.800781 28.5625 C 20.613281 27.746094 22.042969 27.109375 22.042969 27.109375 C 22.042969 27.109375 24.957031 25.898438 25.207031 21.699219 C 25.304688 20.101562 24.535156 17.609375 22.503906 16.480469 C 19.570312 14.84375 15.90625 12.597656 15.90625 12.597656 C 15.90625 12.597656 12.5 10.242188 16.160156 7.320312 Z M 16.160156 7.320312 " clip-rule="nonzero"/></clipPath><clipPath id="2553770bd8"><path d="M 16 3.503906 L 28.535156 3.503906 L 28.535156 15 L 16 15 Z M 16 3.503906 " clip-rule="nonzero"/></clipPath><clipPath id="7d319e0bdc"><path d="M 27.679688 5.378906 C 25.570312 4.863281 23.464844 4.335938 21.355469 3.820312 C 20.90625 3.710938 20.449219 3.617188 19.996094 3.527344 C 19.453125 3.421875 19.265625 3.652344 19.441406 4.167969 C 19.484375 4.285156 19.527344 4.40625 19.578125 4.523438 C 19.722656 4.84375 19.875 5.167969 20.039062 5.519531 C 19.398438 5.824219 17.019531 6.925781 16.160156 7.320312 C 16.160156 7.320312 14.78125 9.988281 22.535156 13.238281 L 22.375 13.316406 C 22.761719 13.136719 23.136719 12.964844 23.453125 12.816406 C 23.503906 12.914062 23.535156 12.96875 23.5625 13.023438 C 23.722656 13.355469 23.882812 13.6875 24.042969 14.019531 C 24.3125 14.574219 24.78125 14.59375 25.039062 14.039062 C 25.066406 13.980469 25.109375 13.933594 25.136719 13.875 C 26.25 11.574219 27.367188 9.269531 28.472656 6.960938 C 28.832031 6.210938 28.5 5.582031 27.679688 5.378906 Z M 27.679688 5.378906 " clip-rule="nonzero"/></clipPath></defs><g clip-path="url(#d357550a24)"><g clip-path="url(#0bc05098aa)"><path fill="#000000" d="M 7.375 22.613281 L 7.375 31.234375 L 20.097656 31.234375 L 20.097656 22.613281 Z M 7.375 22.613281 " fill-opacity="1" fill-rule="nonzero"/></g></g><g clip-path="url(#2a587f2a66)"><g clip-path="url(#8f81fe1833)"><path fill="#9400ff" d="M 12.457031 21.136719 L 12.457031 28.5625 L 20.964844 28.5625 L 20.964844 21.136719 Z M 12.457031 21.136719 " fill-opacity="1" fill-rule="nonzero"/></g></g><g clip-path="url(#7569f820e5)"><g clip-path="url(#854c7faf46)"><path fill="#9400ff" d="M 12.5 7.316406 L 12.5 14.691406 L 22.535156 14.691406 L 22.535156 7.316406 Z M 12.5 7.316406 " fill-opacity="1" fill-rule="nonzero"/></g></g><g clip-path="url(#be8538bf13)"><g clip-path="url(#dc2605f01d)"><path fill="#000000" d="M 9.953125 5.132812 L 6.679688 28.140625 L 24.992188 30.746094 L 28.269531 7.742188 Z M 9.953125 5.132812 " fill-opacity="1" fill-rule="nonzero"/></g></g><g clip-path="url(#2553770bd8)"><g clip-path="url(#7d319e0bdc)"><path fill="#000000" d="M 14.78125 3.503906 L 14.78125 14.59375 L 28.535156 14.59375 L 28.535156 3.503906 Z M 14.78125 3.503906 " fill-opacity="1" fill-rule="nonzero"/></g></g></svg>